<svg xmlns="http://www.w3.org/2000/svg" viewBox="0 0 222.9 192.62"><defs><style>.cls-1{fill:#045f74;}</style></defs><title>blue_bars_text_i</title><g id="Layer_2" data-name="Layer 2"><g id="Layer_6" data-name="Layer 6"><rect class="cls-1" width="52.43" height="192.62" rx="26.21"/><rect class="cls-1" x="57.26" y="35.94" width="34.56" height="75.56" rx="17.28"/><rect class="cls-1" x="94.85" y="63.73" width="34.56" height="65.15" rx="17.28"/><rect class="cls-1" x="132.45" y="35.94" width="34.56" height="73.9" rx="17.28"/><path class="cls-1" d="M200.63,95.75a7.82,7.82,0,0,0-4-1,7.92,7.92,0,0,0-4,1,7.53,7.53,0,0,0-2.81,2.82,8.54,8.54,0,0,0,0,8.13,7.59,7.59,0,0,0,2.81,2.87,7.84,7.84,0,0,0,4,1.05,7.73,7.73,0,0,0,4-1.05,7.59,7.59,0,0,0,2.81-2.87,8.54,8.54,0,0,0,0-8.13A7.53,7.53,0,0,0,200.63,95.75Z"/><path class="cls-1" d="M194.74,120.14a8,8,0,0,0-2.58.8,6.44,6.44,0,0,0-2.62,2.42,7,7,0,0,0-1,3.8,8.57,8.57,0,0,0,1.05,4.37,7,7,0,0,0,2.87,2.76,8.51,8.51,0,0,0,2.25.75Z"/><path class="cls-1" d="M196.69,0a26.29,26.29,0,0,0-26.21,26.21v140.2a26.21,26.21,0,0,0,52.42,0V26.21A26.29,26.29,0,0,0,196.69,0ZM175.82,42a1.72,1.72,0,0,1,1.38-.65,1.74,1.74,0,0,1,1.36.65,2.41,2.41,0,0,1,.57,1.64,5.86,5.86,0,0,0,.71,2.91,5.08,5.08,0,0,0,2,2,6.06,6.06,0,0,0,3,.69h1.14V44.57a2.23,2.23,0,0,1,.5-1.52,1.68,1.68,0,0,1,1.34-.58,1.57,1.57,0,0,1,1.26.58,2.24,2.24,0,0,1,.51,1.52v4.57H205.9a2,2,0,0,1,1.55.63,2.47,2.47,0,0,1,.59,1.75,2.27,2.27,0,0,1-.59,1.52,2,2,0,0,1-1.55.67H189.54v1.93a2.24,2.24,0,0,1-.51,1.52,1.57,1.57,0,0,1-1.26.58,1.68,1.68,0,0,1-1.34-.58,2.23,2.23,0,0,1-.5-1.52V53.71h-.72A10.25,10.25,0,0,1,180,52.43a8.85,8.85,0,0,1-3.46-3.56,10.84,10.84,0,0,1-1.24-5.28A2.45,2.45,0,0,1,175.82,42Zm13.76,38.83a6.19,6.19,0,0,0,1.91,2.42,4.41,4.41,0,0,0,2.74.89h11.84a2.05,2.05,0,0,1,1.53.63,2.52,2.52,0,0,1,0,3.29,2,2,0,0,1-1.53.65H187.35A2,2,0,0,1,185.8,88a2.59,2.59,0,0,1,0-3.29,2,2,0,0,1,1.55-.63h.47a9.91,9.91,0,0,1-1.6-2.28A11.52,11.52,0,0,1,185,76.48,12.1,12.1,0,0,1,186.24,71a9.31,9.31,0,0,1,3.63-3.86,11.39,11.39,0,0,1,5.87-1.41h10.33a2,2,0,0,1,1.53.65,2.34,2.34,0,0,1,.61,1.64,2.3,2.3,0,0,1-.61,1.63,2,2,0,0,1-1.53.65H195.74a7.36,7.36,0,0,0-3.9.94,5.83,5.83,0,0,0-2.24,2.53,8.63,8.63,0,0,0-.74,3.66A7.88,7.88,0,0,0,189.58,80.78Zm-8.83-17.45a2.63,2.63,0,0,1-3.91,0,3.09,3.09,0,0,1,0-4.17,2.63,2.63,0,0,1,3.91,0,3.09,3.09,0,0,1,0,4.17Zm9.5,90.38a5.21,5.21,0,0,0,3.86,1.51h11.83a2,2,0,0,1,1.53.62,2.27,2.27,0,0,1,.61,1.66,2.3,2.3,0,0,1-.61,1.64,2,2,0,0,1-1.53.64h-12a4.65,4.65,0,0,0-5.2,5,5.2,5.2,0,0,0,5.37,5.38h11.83a2,2,0,0,1,1.53.62,2.54,2.54,0,0,1,0,3.3,2,2,0,0,1-1.53.65H187.27a2,2,0,0,1-1.55-.65,2.6,2.6,0,0,1,0-3.3,2,2,0,0,1,1.5-.62,8.33,8.33,0,0,1-1.17-1.57,9.34,9.34,0,0,1-1.17-4.7,9.49,9.49,0,0,1,1.05-4.53,7.28,7.28,0,0,1,2.24-2.54,8.83,8.83,0,0,1-2.12-2.68,11.06,11.06,0,0,1-1.17-5.17,9.52,9.52,0,0,1,1.05-4.53A7.33,7.33,0,0,1,189,141.4a10.17,10.17,0,0,1,4.93-1.1h12a2,2,0,0,1,1.53.63,2.24,2.24,0,0,1,.61,1.65,2.28,2.28,0,0,1-.61,1.64,2,2,0,0,1-1.53.65h-12a4.65,4.65,0,0,0-5.2,5A5.15,5.15,0,0,0,190.25,153.71Zm16.51-20.61a11.32,11.32,0,0,1-4.11,4.52,11.16,11.16,0,0,1-6,1.64,11.74,11.74,0,0,1-6.07-1.55,11,11,0,0,1-4.11-4.27,13,13,0,0,1-1.49-6.28,11.77,11.77,0,0,1,1.45-6,9.62,9.62,0,0,1,4-3.83,12.49,12.49,0,0,1,5.85-1.32,1.69,1.69,0,0,1,1.32.58,2.12,2.12,0,0,1,.52,1.48v17a7.43,7.43,0,0,0,2.65-1,8,8,0,0,0,2.85-3.09,9.52,9.52,0,0,0,1-4.53,9.05,9.05,0,0,0-.48-2.84A8.88,8.88,0,0,0,203,121.3a2.79,2.79,0,0,1-.48-1.46,2.12,2.12,0,0,1,.44-1.37,2,2,0,0,1,1.39-.8,1.48,1.48,0,0,1,1.3.71,12.75,12.75,0,0,1,1.84,3.79,14.52,14.52,0,0,1-.77,10.93Zm0-23.69a11.21,11.21,0,0,1-4.16,4.1,11.72,11.72,0,0,1-5.93,1.5,11.09,11.09,0,0,1-6-1.63,11.75,11.75,0,0,1-4.18-4.44,13.65,13.65,0,0,1,0-12.56A11.84,11.84,0,0,1,190.67,92a11.09,11.09,0,0,1,6-1.63H206a2,2,0,0,1,1.53.65,2.5,2.5,0,0,1,0,3.27,2,2,0,0,1-1.53.65h-1.59a11.06,11.06,0,0,1,3.86,8.64A11.35,11.35,0,0,1,206.72,109.41Zm.92-46.53a2,2,0,0,1-1.53.65H187.44a2,2,0,0,1-1.56-.65,2.35,2.35,0,0,1-.58-1.64,2.31,2.31,0,0,1,.58-1.65,2,2,0,0,1,1.56-.63h18.67a2.05,2.05,0,0,1,1.53.63,2.28,2.28,0,0,1,.61,1.65A2.33,2.33,0,0,1,207.64,62.88Zm10.22-28.2c-.56,1.31-1.45,1.67-2.65,1.08l-9.45-4.47-17.9,10.06a1.62,1.62,0,0,1-1.53.12,2.07,2.07,0,0,1-1.07-1.19,2.2,2.2,0,0,1-.07-1.61,2.11,2.11,0,0,1,1.07-1.17l15.28-8.21-15.23-7.2a2,2,0,0,1-1-2.82c.53-1.34,1.41-1.72,2.64-1.12l28.87,13.71a1.83,1.83,0,0,1,1.3,1.75A3.17,3.17,0,0,1,217.86,34.68Z"/></g></g></svg>