<svg xmlns="http://www.w3.org/2000/svg" viewBox="0 0 529.61 213.52"><defs><style>.cls-1{fill:#045f74;}.cls-2{fill:#3c3c3b;}.cls-3{fill:#575756;}</style></defs><title>blue_bars_text_r</title><g id="Layer_2" data-name="Layer 2"><g id="Layer_6" data-name="Layer 6"><rect class="cls-1" width="40.59" height="192.62" rx="20.29"/><rect class="cls-1" x="43.62" y="33.98" width="34.56" height="75.56" rx="17.28"/><rect class="cls-1" x="81.21" y="61.78" width="34.56" height="65.15" rx="17.28"/><rect class="cls-1" x="156.4" width="41.95" height="192.62" rx="20.97"/><rect class="cls-1" x="118.81" y="33.98" width="34.56" height="73.9" rx="17.28"/><path class="cls-2" d="M238.28,185.2a36.1,36.1,0,0,1-17.7-4.26,31.15,31.15,0,0,1-12.12-11.76A33.51,33.51,0,0,1,204.08,152a35.3,35.3,0,0,1,4.14-17.34,30.27,30.27,0,0,1,11.46-11.76,32.78,32.78,0,0,1,16.8-4.26,30.06,30.06,0,0,1,16.08,4.14,27,27,0,0,1,10.26,11.4,37.74,37.74,0,0,1,3.54,16.74,5,5,0,0,1-1.56,3.78,5.48,5.48,0,0,1-4,1.5H212.48v-9.6h48l-4.92,3.36a25.68,25.68,0,0,0-2.4-10.74,17.5,17.5,0,0,0-16.68-10.26,21.84,21.84,0,0,0-11.7,3,19.33,19.33,0,0,0-7.38,8.22A26.85,26.85,0,0,0,214.88,152a23,23,0,0,0,3,11.76,21.92,21.92,0,0,0,8.28,8.16,24.1,24.1,0,0,0,12.12,3,22.76,22.76,0,0,0,7.62-1.38,23.67,23.67,0,0,0,6.3-3.18,6.8,6.8,0,0,1,3.9-1.38,5.24,5.24,0,0,1,3.66,1.26,5.69,5.69,0,0,1,2.16,4,4.26,4.26,0,0,1-1.92,3.72,33.18,33.18,0,0,1-10.14,5.28A36.28,36.28,0,0,1,238.28,185.2Z"/><path class="cls-2" d="M300.8,184.12a28.9,28.9,0,0,1-15.72-4.38,31.13,31.13,0,0,1-11-11.88,35.37,35.37,0,0,1-4-17,33.37,33.37,0,0,1,4.38-17,32.4,32.4,0,0,1,11.88-11.94,33.08,33.08,0,0,1,45.48,11.94,33.37,33.37,0,0,1,4.38,17h-4.68a35.37,35.37,0,0,1-4,17,31.13,31.13,0,0,1-11,11.88A28.9,28.9,0,0,1,300.8,184.12Zm2.4-10.8a20.48,20.48,0,0,0,10.92-2.94,20.9,20.9,0,0,0,7.56-8,23.69,23.69,0,0,0,2.76-11.46,23.94,23.94,0,0,0-2.76-11.58,20.9,20.9,0,0,0-7.56-8,21.64,21.64,0,0,0-21.78,0,21.2,21.2,0,0,0-7.68,8,23.53,23.53,0,0,0-2.82,11.58,23.28,23.28,0,0,0,2.82,11.46,21.2,21.2,0,0,0,7.68,8A20.57,20.57,0,0,0,303.2,173.32Zm26.88,10.44a5.95,5.95,0,0,1-6.12-6.12V159.28l2.28-12.72,10,4.32v26.76a5.95,5.95,0,0,1-6.12,6.12Z"/><path class="cls-2" d="M348.14,184.84a5.95,5.95,0,0,1-6.12-6.12V125.2a5.85,5.85,0,0,1,1.74-4.44,6.09,6.09,0,0,1,10.5,4.44v53.52a6.09,6.09,0,0,1-1.68,4.38A5.9,5.9,0,0,1,348.14,184.84Zm49.32,0a5.95,5.95,0,0,1-6.12-6.12V149.2q0-6.84-2.53-11.16a15.85,15.85,0,0,0-6.77-6.42,21.9,21.9,0,0,0-9.78-2.1,20,20,0,0,0-9.12,2,16.9,16.9,0,0,0-6.48,5.46,13.27,13.27,0,0,0-2.4,7.86H346.7a25.2,25.2,0,0,1,3.65-13.5,26.38,26.38,0,0,1,10-9.42,29.23,29.23,0,0,1,14.28-3.48A30.66,30.66,0,0,1,389.48,122,25.66,25.66,0,0,1,399.8,132.4q3.76,6.84,3.78,16.8v29.52a5.95,5.95,0,0,1-6.12,6.12Z"/><path class="cls-3" d="M414.07,108.4a8,8,0,1,1,5.58-2.34A7.62,7.62,0,0,1,414.07,108.4Zm0,76.32A5.95,5.95,0,0,1,408,178.6V125.2a5.89,5.89,0,0,1,1.74-4.44,6.09,6.09,0,0,1,10.5,4.44v53.4a6.05,6.05,0,0,1-1.68,4.38A5.89,5.89,0,0,1,414.07,184.72Z"/><path class="cls-3" d="M427.63,131.8a5.78,5.78,0,0,1-4.08-1.44,4.7,4.7,0,0,1-1.56-3.6,5,5,0,0,1,1.56-3.84,5.78,5.78,0,0,1,4.08-1.44h29.64a5.78,5.78,0,0,1,4.08,1.44,5,5,0,0,1,1.56,3.84,4.7,4.7,0,0,1-1.56,3.6,5.78,5.78,0,0,1-4.08,1.44Zm11,52.92a5.94,5.94,0,0,1-5.88-6.12V119.44a31.22,31.22,0,0,1,3.42-15,24.71,24.71,0,0,1,9.54-9.9A27.77,27.77,0,0,1,459.91,91a6.32,6.32,0,0,1,4.38,1.56,5.09,5.09,0,0,1,1.74,4,5.14,5.14,0,0,1-1.74,3.9,6.18,6.18,0,0,1-4.38,1.62,14.73,14.73,0,0,0-7.8,2,13.94,13.94,0,0,0-5.22,5.64,18.33,18.33,0,0,0-1.86,8.52V178.6a6,6,0,0,1-1.68,4.44A6.33,6.33,0,0,1,438.67,184.72Z"/><path class="cls-3" d="M501.63,182.08a5.47,5.47,0,0,1-4.26.18,6.19,6.19,0,0,1-3.18-3.06L466.71,127a4.88,4.88,0,0,1-.3-4.38,5.7,5.7,0,0,1,3.18-3.06,5.62,5.62,0,0,1,4.32-.18,5.69,5.69,0,0,1,3.12,3.06l26.28,52.2a7.14,7.14,0,0,1,.9,4.38A3.84,3.84,0,0,1,501.63,182.08Zm-14.16,31.44a7.56,7.56,0,0,1-2.88-.72q-5.28-2.4-2.88-7.56l36.6-82.68q2.4-5,7.56-2.88,5.4,2.28,3,7.56L492.15,209.8Q490.71,213.52,487.47,213.52Z"/></g></g></svg>