<?xml version="1.0" encoding="UTF-8" standalone="no"?><!DOCTYPE svg PUBLIC "-//W3C//DTD SVG 1.1//EN" "http://www.w3.org/Graphics/SVG/1.1/DTD/svg11.dtd"><svg width="100%" height="100%" viewBox="0 0 3216 3046" version="1.1" xmlns="http://www.w3.org/2000/svg" xmlns:xlink="http://www.w3.org/1999/xlink" xml:space="preserve" xmlns:serif="http://www.serif.com/" style="fill-rule:evenodd;clip-rule:evenodd;stroke-linejoin:round;stroke-miterlimit:1.41421;"><g><rect x="0" y="0" width="3215.9" height="3045.01" style="fill:none;"/><g><path d="M1031.69,721.979c0,-152.891 -124.129,-277.019 -277.02,-277.019c-152.891,0 -277.019,124.128 -277.019,277.019l0,1622.02c0,152.891 124.128,277.02 277.019,277.02c152.891,0 277.02,-124.129 277.02,-277.02l0,-1622.02Z" style="fill:#d4593d;"/><path d="M2744.69,721.979c0,-152.891 -124.128,-277.019 -277.019,-277.019c-152.891,0 -277.019,124.128 -277.019,277.019l0,1622.02c0,152.891 124.128,277.02 277.019,277.02c152.891,0 277.019,-124.129 277.019,-277.02l0,-1622.02Z" style="fill:#d4593d;"/><path d="M2654.12,925.747c111.247,-104.88 116.416,-280.348 11.537,-391.595c-104.88,-111.247 -280.348,-116.416 -391.595,-11.536l-1712.19,1614.19c-111.247,104.88 -116.416,280.348 -11.536,391.595c104.88,111.247 280.347,116.416 391.594,11.536l1712.19,-1614.19Z" style="fill:#d4593d;fill-opacity:0.32;"/><path d="M2654.12,925.747c111.247,-104.88 116.416,-280.348 11.537,-391.595c-104.88,-111.247 -280.348,-116.416 -391.595,-11.536l-851.595,802.854c-111.247,104.88 -116.416,280.348 -11.536,391.595c104.88,111.247 280.347,116.416 391.594,11.536l851.595,-802.854Z" style="fill:#d4593d;fill-opacity:0.67;"/><path d="M2272.58,2540.92c111.092,105.044 286.567,100.133 391.611,-10.96c105.043,-111.092 100.132,-286.567 -10.96,-391.611l-1709.81,-1616.71c-111.093,-105.043 -286.568,-100.132 -391.611,10.96c-105.044,111.093 -100.133,286.568 10.96,391.611l1709.81,1616.71Z" style="fill:#d4593d;fill-opacity:0.32;"/><path d="M1412.93,1728.07c111.093,105.043 286.568,100.132 391.611,-10.96c105.044,-111.092 100.133,-286.568 -10.96,-391.611l-850.157,-803.867c-111.093,-105.043 -286.568,-100.132 -391.611,10.96c-105.044,111.093 -100.133,286.568 10.96,391.611l850.157,803.867Z" style="fill:#d4593d;fill-opacity:0.67;"/><path d="M2576.33,1950.18c0,5.888 -1.951,10.767 -5.855,14.649c-3.903,3.875 -8.822,5.816 -14.749,5.816l-115.572,0c-16.974,0 -29.563,4.151 -37.78,12.432c-8.217,8.302 -12.329,19.135 -12.329,32.511c0,13.908 4.854,25.344 14.547,34.301c9.701,8.971 22.095,13.442 37.175,13.442l0,33.311c-17.507,0 -32.933,-3.744 -46.263,-11.239c-13.338,-7.488 -23.773,-17.986 -31.32,-31.494c-7.54,-13.508 -11.314,-28.957 -11.314,-46.347c0,-15.252 3.37,-28.753 10.104,-40.53c6.733,-11.77 16.636,-20.931 29.7,-27.488c13.071,-6.551 28.893,-9.83 47.48,-9.83l115.572,0c5.927,0 10.846,1.876 14.749,5.62c3.904,3.752 5.855,8.695 5.855,14.846m0,133.616c0,5.889 -1.951,10.774 -5.855,14.649c-3.903,3.875 -8.822,5.816 -14.749,5.816l-115.572,0c-16.974,0 -29.563,4.152 -37.78,12.44c-8.217,8.295 -12.329,19.127 -12.329,32.497c0,13.922 4.854,25.423 14.547,34.511c9.701,9.102 22.095,13.646 37.175,13.646l0,25.278c-17.507,0 -32.933,-3.475 -46.263,-10.433c-13.338,-6.95 -23.773,-16.583 -31.32,-28.891c-7.54,-12.301 -11.314,-26.347 -11.314,-42.137c0,-15.246 3.37,-28.746 10.104,-40.524c6.733,-11.763 16.636,-20.923 29.7,-27.481c13.071,-6.557 28.893,-9.836 47.48,-9.836l115.572,0c5.927,0 10.846,1.876 14.749,5.62c3.904,3.751 5.855,8.695 5.855,14.845m0,134.017c0,5.896 -1.951,10.774 -5.855,14.649c-3.903,3.882 -8.822,5.816 -14.749,5.816l-179.825,0c-6.194,0 -11.177,-1.934 -14.951,-5.816c-3.773,-3.875 -5.653,-8.753 -5.653,-14.649c0,-6.144 1.88,-11.095 5.653,-14.846c3.774,-3.737 8.757,-5.612 14.951,-5.612l179.825,0c5.927,0 10.846,1.875 14.749,5.612c3.904,3.751 5.855,8.702 5.855,14.846" style="fill:#fff;fill-rule:nonzero;"/><path d="M2577.95,1806.05c0,22.21 -4.775,41.934 -14.339,59.186c-9.563,17.252 -22.764,30.767 -39.602,40.523c-16.837,9.771 -36.174,14.649 -57.987,14.649c-22.088,0 -41.554,-4.616 -58.391,-13.842c-16.838,-9.226 -30.039,-21.999 -39.602,-38.32c-9.564,-16.314 -14.353,-35.042 -14.353,-56.176c0,-20.865 4.652,-38.786 13.949,-53.77c9.29,-14.976 22.088,-26.412 38.385,-34.307c16.305,-7.888 35.094,-11.836 56.368,-11.836c5.12,0 9.369,1.738 12.732,5.213c3.37,3.482 5.056,7.895 5.056,13.246l0,161.708l-32.329,0l0,-160.508l11.314,16.452c-13.467,0.269 -25.522,2.951 -36.174,8.026c-10.629,5.082 -19.048,12.308 -25.249,21.665c-6.2,9.371 -9.29,20.734 -9.29,34.111c0,15.245 3.363,28.288 10.097,39.12c6.733,10.832 15.966,19.062 27.683,24.682c11.717,5.612 24.983,8.426 39.804,8.426c14.821,0 28.021,-3.344 39.594,-10.033c11.588,-6.688 20.756,-15.914 27.482,-27.691c6.733,-11.763 10.104,-25.278 10.104,-40.524c0,-8.288 -1.548,-16.786 -4.652,-25.481c-3.09,-8.688 -6.662,-15.711 -10.709,-21.062c-2.96,-4.02 -4.501,-8.36 -4.645,-13.042c-0.13,-4.675 1.282,-8.761 4.241,-12.243c4.048,-4.544 8.491,-6.95 13.338,-7.219c4.854,-0.269 9.031,1.876 12.524,6.419c7.281,9.095 13.207,20.4 17.788,33.901c4.58,13.515 6.863,26.426 6.863,38.727" style="fill:#fff;fill-rule:nonzero;"/><path d="M2576.74,1502.59c0,5.889 -1.952,10.767 -5.855,14.642c-3.903,3.882 -8.822,5.823 -14.749,5.823l-61.833,0l-42.836,-7.626l14.555,-33.304l90.114,0c5.927,0 10.846,1.941 14.749,5.816c3.903,3.882 5.855,8.767 5.855,14.649m-35.158,89.88c0,-13.639 -3.299,-25.809 -9.903,-36.511c-6.597,-10.701 -15.62,-19.127 -27.071,-25.285c-11.443,-6.143 -24.313,-9.226 -38.586,-9.226c-14.555,0 -27.547,3.083 -38.997,9.226c-11.451,6.158 -20.475,14.584 -27.079,25.285c-6.596,10.702 -9.895,22.872 -9.895,36.511c0,13.384 3.299,25.481 9.895,36.314c6.604,10.832 15.628,19.396 27.079,25.685c11.45,6.281 24.442,9.422 38.997,9.422c14.273,0 27.143,-3.141 38.586,-9.422c11.451,-6.289 20.474,-14.853 27.071,-25.685c6.604,-10.833 9.903,-22.93 9.903,-36.314m36.368,8.026c0,19.527 -4.912,37.055 -14.749,52.562c-9.83,15.522 -23.168,27.757 -40.005,36.721c-16.831,8.957 -35.893,13.435 -57.174,13.435c-21.281,0 -40.409,-4.878 -57.383,-14.641c-16.975,-9.764 -30.377,-23.003 -40.214,-39.724c-9.831,-16.721 -14.749,-35.514 -14.749,-56.379c0,-20.865 4.918,-39.586 14.749,-56.176c9.837,-16.583 23.239,-29.757 40.214,-39.52c16.974,-9.771 36.102,-14.649 57.383,-14.649l0,15.652c21.281,0 40.343,4.478 57.174,13.442c16.837,8.964 30.175,21.2 40.005,36.714c9.837,15.514 14.749,33.035 14.749,52.563" style="fill:#fff;fill-rule:nonzero;"/><path d="M2577.55,1281.82c0,5.889 -1.952,10.767 -5.855,14.649c-3.903,3.882 -8.822,5.816 -14.749,5.816l-99.412,0c-15.361,0 -27.885,2.814 -37.585,8.419c-9.694,5.62 -16.896,13.188 -21.613,22.683c-4.71,9.487 -7.072,20.399 -7.072,32.7c0,11.225 2.29,21.403 6.871,30.498c4.587,9.095 10.701,16.314 18.386,21.658c7.676,5.358 16.506,8.033 26.458,8.033l0,25.271c-16.967,0 -32.119,-4.064 -45.456,-12.236c-13.338,-8.149 -23.903,-19.323 -31.717,-33.507c-7.806,-14.17 -11.717,-30.084 -11.717,-47.75c0,-18.452 3.968,-34.969 11.919,-49.546c7.943,-14.576 19.596,-26.085 34.95,-34.518c15.354,-8.419 34.215,-12.628 56.576,-12.628l99.412,0c5.927,0 10.846,1.934 14.749,5.809c3.903,3.889 5.855,8.767 5.855,14.649m0,164.914c0,5.889 -1.952,10.774 -5.855,14.649c-3.903,3.882 -8.822,5.824 -14.749,5.824l-180.236,0c-6.187,0 -11.17,-1.942 -14.951,-5.824c-3.759,-3.875 -5.653,-8.76 -5.653,-14.649c0,-6.15 1.894,-11.094 5.653,-14.838c3.781,-3.751 8.764,-5.62 14.951,-5.62l180.236,0c5.927,0 10.846,1.869 14.749,5.62c3.903,3.744 5.855,8.688 5.855,14.838" style="fill:#fff;fill-rule:nonzero;"/><path d="M2577.95,1221.58c0,5.889 -1.952,10.767 -5.855,14.649c-3.903,3.875 -8.822,5.816 -14.749,5.816l-179.826,0c-6.193,0 -11.177,-1.941 -14.95,-5.816c-3.774,-3.882 -5.654,-8.76 -5.654,-14.649c0,-6.15 1.88,-11.094 5.654,-14.845c3.773,-3.745 8.757,-5.62 14.95,-5.62l179.826,0c5.927,0 10.846,1.875 14.749,5.62c3.903,3.751 5.855,8.695 5.855,14.845m-257.006,0c0,7.219 -2.629,13.442 -7.871,18.655c-5.258,5.22 -11.523,7.823 -18.797,7.823c-7.266,0 -13.539,-2.603 -18.789,-7.823c-5.257,-5.213 -7.879,-11.436 -7.879,-18.655c0,-7.226 2.622,-13.442 7.879,-18.655c5.25,-5.22 11.523,-7.83 18.789,-7.83c7.274,0 13.539,2.61 18.797,7.83c5.242,5.213 7.871,11.429 7.871,18.655" style="fill:#fff;fill-rule:nonzero;"/><path d="M2575.93,1134.44c0,5.09 -1.887,9.633 -5.653,13.646c-3.781,4.013 -8.757,6.02 -14.951,6.02l-199.219,0c-19.402,0 -36.239,-3.81 -50.52,-11.436c-14.274,-7.626 -25.379,-18.255 -33.337,-31.901c-7.943,-13.638 -11.918,-29.422 -11.918,-47.35c0,-5.881 1.757,-10.759 5.25,-14.649c3.514,-3.868 7.958,-5.809 13.337,-5.809c5.128,0 9.499,1.941 13.136,5.809c3.637,3.89 5.452,8.768 5.452,14.649c0,9.902 2.29,18.604 6.87,26.085c4.588,7.496 10.918,13.312 18.998,17.456c8.08,4.151 17.644,6.216 28.684,6.216l203.267,0c6.194,0 11.17,1.875 14.951,5.619c3.766,3.752 5.653,8.972 5.653,15.645m-178.205,36.918c0,5.62 -1.62,10.178 -4.847,13.646c-3.233,3.482 -7.281,5.22 -12.127,5.22c-5.387,0 -9.694,-1.738 -12.927,-5.22c-3.241,-3.468 -4.847,-8.026 -4.847,-13.646l0,-99.106c0,-5.619 1.606,-10.163 4.847,-13.646c3.233,-3.475 7.54,-5.212 12.927,-5.212c4.846,0 8.894,1.737 12.127,5.212c3.227,3.483 4.847,8.027 4.847,13.646l0,99.106Z" style="fill:#fff;fill-rule:nonzero;"/><path d="M2672.92,974.014c0,2.675 -0.814,5.889 -2.427,9.633c-5.394,11.77 -13.885,14.976 -25.458,9.625l-278.416,-122.384c-11.321,-5.343 -14.555,-13.777 -9.708,-25.278c5.12,-12.032 13.611,-15.376 25.458,-10.032l278.02,122.791c8.347,3.206 12.531,8.419 12.531,15.645m-105.872,-47.35c2.153,5.089 2.355,9.829 0.605,14.242c-1.75,4.413 -5.192,7.968 -10.313,10.636l-175.771,91.887c-5.12,2.682 -10.039,3.009 -14.756,1.003c-4.71,-2.007 -8.145,-5.547 -10.306,-10.629c-2.146,-5.082 -2.354,-9.894 -0.604,-14.446c1.757,-4.551 5.192,-8.026 10.305,-10.432l175.778,-87.881c5.121,-2.668 10.047,-3.671 14.749,-3.009c4.718,0.668 8.153,3.555 10.313,8.629" style="fill:#fff;fill-rule:nonzero;"/></g></g></svg>